<?xml version="1.0" encoding="UTF-8" standalone="no"?>
<!DOCTYPE svg PUBLIC "-//W3C//DTD SVG 1.1//EN" "http://www.w3.org/Graphics/SVG/1.1/DTD/svg11.dtd">
<svg width="100%" height="100%" viewBox="0 0 92 91" version="1.1" xmlns="http://www.w3.org/2000/svg" xmlns:xlink="http://www.w3.org/1999/xlink" xml:space="preserve" xmlns:serif="http://www.serif.com/" style="fill-rule:evenodd;clip-rule:evenodd;stroke-linejoin:round;stroke-miterlimit:2;">
    <g id="WEC_x5F_consultancies">
        <path d="M78.41,2.886C77.08,7.776 73.933,11.478 70.743,14.626C64.323,20.96 57.16,26.677 49.898,32.356C46.249,35.21 42.543,37.914 39.356,41.101C33.035,47.422 29.94,57.261 25.1,65.42C20.484,73.2 13.366,80.273 0.061,77.76C-0.382,72.972 1.678,69.022 3.775,66.02C8.742,67.488 14.798,66.033 18.63,64.103C23.399,61.702 25.972,56.587 27.975,51.045C29.905,45.702 31.896,40.764 35.882,37.268C37.907,35.492 40.177,34.018 42.231,32.476C44.313,30.913 46.347,29.283 48.341,27.564C52.194,24.244 56.555,20.605 59.004,16.183C59.87,14.617 60.537,12.1 60.321,10.193C59.796,5.553 56.344,3.359 53.612,1.089C55.713,1.063 57.749,0.16 59.962,0.01C61.641,-0.103 63.293,0.768 65.234,0.968C67.662,1.219 70.354,0.277 72.421,0.489C74.767,0.73 76.775,2.252 78.41,2.886Z" style="fill:white;stroke:black;stroke-width:0.2px;"/>
        <path d="M4.253,65.301C10.684,56.257 17.769,47.142 23.421,35.59C26.257,29.794 27.835,23.573 30.37,18.099C32.924,12.585 36.287,7.685 40.433,3.843C42.813,1.638 46.935,-0.741 51.454,0.968C55.659,2.558 61.194,7.71 59.121,13.787C57.624,18.177 53.354,22.274 49.777,25.287C45.814,28.626 42.146,31.746 38.277,34.631C33.543,38.161 31.148,40.967 28.932,46.132C26.744,51.234 25.62,56.498 22.224,60.149C18.504,64.147 11.564,67.021 4.253,65.301Z" style="fill:white;stroke:black;stroke-width:0.2px;"/>
        <path d="M0.181,78.719C2.803,79.112 5.816,79.339 9.046,78.839C24.085,76.512 27.471,60.908 33.845,49.608C36.054,45.691 38.918,42.647 41.991,39.784C48.371,33.841 55.409,29.231 61.878,23.611C64.968,20.926 68.215,18.232 71.342,15.105C74.255,12.192 77.657,8.333 78.89,4.683C79.119,4.003 79.284,3.308 79.129,2.407C80.702,1.46 87.43,0.949 88.354,2.887C89.275,4.818 86.087,8.326 85.12,9.476C80.53,14.932 75.171,19.442 69.546,24.092C62.026,30.309 54.473,35.811 47.263,41.942C39.95,48.16 34.25,55.782 30.611,65.422C27.81,72.843 25.07,79.415 20.308,85.309C19.19,86.693 16.995,89.996 15.396,90.341C13.322,90.788 10.307,89.584 8.687,88.903C4.433,87.115 1.101,83.644 0.181,78.719Z" style="fill:white;stroke:black;stroke-width:0.2px;"/>
        <path d="M89.192,3.484C89.385,3.45 89.398,3.597 89.551,3.604C91.084,5.138 92.282,7.548 91.707,10.552C90.873,14.903 86.704,19.368 84.399,22.652C81.533,26.734 78.609,29.795 75.174,32.715C68.062,38.762 59.448,42.965 52.412,48.528C45.19,54.237 39.571,61.547 35.64,70.332C31.656,79.235 29.039,88.871 17.071,90.338C24.034,83.554 27.854,75.046 31.327,65.659C34.612,56.78 40.392,48.677 47.5,42.658C57.96,33.8 69.268,25.539 79.725,16.182C82.966,13.282 87.152,9.446 88.71,5.639C89.014,4.904 89.085,4.22 89.192,3.484Z" style="fill:white;stroke:black;stroke-width:0.2px;"/>
    </g>
</svg>
